# xmcd
#
# Track frame offsets:
#	150
#	23164
#	44189
#	67138
#	85599
#	102951
#	121667
#	141039
#	159651
#	173379
#	194371
#	210299
#	231614
#	245820
#	266409
#	279276
#	298824
#
# Disc length: 4282 seconds
#
# Revision: 0
# Processed by: cddbd v1.5.2PL0 Copyright (c) Steve Scherf et al.
# Submitted via: EasyCDDAExtractor 11.0.3.1
#
DISCID=f710b811
DTITLE=Alan Jackson - Good Time
DYEAR=2008
DGENRE=Country
TTITLE0=Good Time
TTITLE1=Small Town Southern Man
TTITLE2=I Wish I Could Back Up
TTITLE3=Country Boy
TTITLE4=Right Where I Want You
TTITLE5=1976
TTITLE6=When The Love Factor's High
TTITLE7=Long Long Way
TTITLE8=Sissy's Song
TTITLE9=I Still Like Bologna
TTITLE10=Never Loved Before (With Martina McBride)
TTITLE11=Nothing Left To Do
TTITLE12=Listen To Your Senses
TTITLE13=This Time
TTITLE14=Laid Back 'N Low Key (Cay)
TTITLE15=If You Want To Make Me Happy
TTITLE16=If Jesus Walked The World Today
EXTD=
EXTT0=
EXTT1=
EXTT2=
EXTT3=
EXTT4=
EXTT5=
EXTT6=
EXTT7=
EXTT8=
EXTT9=
EXTT10=
EXTT11=
EXTT12=
EXTT13=
EXTT14=
EXTT15=
EXTT16=
PLAYORDER=
